<svg id="Layer_1" data-name="Layer 1" xmlns="http://www.w3.org/2000/svg" viewBox="0 0 255.35 228.54"><defs><style>.cls-1{fill:#0166cb;}.cls-2{fill:#d0d0d0;}.cls-3{fill:#fbfcfd;}.cls-4{fill:#03509e;}.cls-5{fill:#03519f;}.cls-6{fill:#0351a0;}.cls-7{fill:#999;}.cls-8{fill:#1770ce;}.cls-9{fill:#106dcd;}</style></defs><path class="cls-1" d="M402.67,22.27c11.84.73,21.12,6.19,28.83,15,4,4.62,8.67,8.72,13.93,13.94V36.32c.09-8.48,4.65-13.33,13.08-13.78a88.54,88.54,0,0,1,9.5,0c8.69.4,13.35,5.24,13.39,14.07.07,15.83-.11,31.67.16,47.49a12.11,12.11,0,0,0,3,7.3c7.29,8,15,15.63,22.49,23.4,5.82,6,7.3,13.23,4.28,20.74-3.14,7.78-9.73,11-18.06,10.72-3.78-.11-7.58,0-11.81,0v60.43c0,13.47-7.76,21.66-21.29,21.73-38.5.2-77,.12-115.51,0-3.27,0-6.54-1-9.81-1.6-8.38-5-11.72-12.23-11.46-22.06.48-17.63.14-35.28.14-52.92V146.1c-5.56,0-10.37.08-15.17,0-11.25-.24-19.59-13.93-15.69-21.82,2.31-4.65,5-9.41,8.58-13.1,23.84-24.61,48.18-48.74,71.9-73.46C381.41,29,390.39,22.78,402.67,22.27ZM436.84,175v45H460c7.12,0,11.37-2.63,13-7.85,1.84-5.82-.18-10.42-6.45-14.63,5.37-4.14,7.22-9.13,5.45-14.69-1.66-5.25-5.87-7.8-13-7.83S444.51,175,436.84,175Zm-32-97c4.82,0,9.68.37,14.43-.19,1.86-.22,3.48-2.51,5.21-3.86-1.76-1.32-3.49-3.7-5.3-3.77q-14.67-.57-29.39,0c-1.78.07-3.46,2.52-5.19,3.87,1.76,1.32,3.42,3.56,5.31,3.77,4.91.49,9.94.18,14.92.18Zm-9.33,113.9A9.58,9.58,0,0,0,386.2,182h-.81c-4.43.15-8.92,5-8.87,9.6.05,5,5,10.32,9.55,10.27C391.51,201.87,395.51,197.55,395.51,191.9Zm0-30.67c.06-5.42-3.75-9.22-9.3-9.26-5.72,0-9.7,3.86-9.7,9.48a9.17,9.17,0,0,0,8.79,9.5h.56c5.65,0,9.65-3.89,9.65-9.72Zm21-9.23c-6,0-9,3.06-8.95,9.23,0,5.55,4,9.8,9.14,9.75a9.76,9.76,0,0,0,9.86-9.66h0v-.11C426.6,156,422.22,152,416.51,152Zm.27,30.08c-4.86-.15-9,4-9.22,9.16-.25,5.91,3.42,10.41,8.7,10.67,5,.26,10.16-4.89,10.29-10.19.05-4.49-5-9.53-9.82-9.67Z" transform="translate(-257.51 0)"/><path class="cls-2" d="M402.67,22.27c-12.28.51-21.26,6.76-29.58,15.43-23.72,24.72-48.06,48.85-71.9,73.46-3.58,3.69-6.27,8.45-8.58,13.1-3.9,7.89,4.44,21.58,15.69,21.82,4.8.1,9.61,0,15.17,0v5.71c0,17.64.34,35.29-.14,52.92-.26,9.83,3.08,17.07,11.46,22.06-22.32.06-44.63.19-67,.13-6.82,0-10.33-4.25-10.33-11.9V12.63C257.51,3.45,261,0,270.13,0H390.07c8.87,0,12.42,3.54,12.46,12.32C402.51,15.61,402.63,18.94,402.67,22.27ZM300.51,59c6.66,0,13.32-.06,20,0,4.11,0,6.91-1.46,7-5.88S325,47,320.81,47h-40.5c-4.17,0-6.78,1.77-6.74,6.12S276.42,59,280.51,59C287.18,58.91,293.84,59,300.51,59Zm-9.46-41h-11a7.53,7.53,0,0,0-7.54,7.5c-.21,4.45,2.46,8.16,6.77,8.33,7.79.3,15.61.29,23.4,0,4.32-.16,7-3.85,6.82-8.29S306.35,18.08,302,18c-3.64-.09-7.3,0-11,0Z" transform="translate(-257.51 0)"/><path class="cls-3" d="M436.84,175h22.21c7.29,0,11.36,2.58,13,7.83,1.77,5.56-.08,10.55-5.45,14.69,6.27,4.21,8.29,8.81,6.45,14.63-1.66,5.22-5.91,7.82-13,7.85h-23.2Zm9.09,18.58c4.6,0,8.81.51,12.79-.24,1.67-.32,3.81-3.24,3.93-5.09.1-1.53-2.28-4.38-3.88-4.63-4.14-.67-8.46-.23-12.84-.23Zm.24,8.41v9.74c4.33,0,8.3.1,12.27,0,2.89-.1,5.37-1.17,5.44-4.58.07-3.58-2.36-5-5.51-5.09-4-.23-7.95-.06-12.2-.06Z" transform="translate(-257.51 0)"/><path class="cls-4" d="M404.83,78c-5,0-10,.35-14.93-.18-1.89-.21-3.55-2.45-5.31-3.77,1.73-1.35,3.41-3.8,5.19-3.87q14.69-.57,29.39,0c1.81.07,3.54,2.45,5.3,3.77-1.73,1.35-3.35,3.64-5.21,3.86C414.51,78.33,409.65,78,404.83,78Z" transform="translate(-257.51 0)"/><path class="cls-5" d="M395.51,191.9c0,5.65-4.05,10-9.44,10-4.57,0-9.5-5.25-9.55-10.27,0-4.58,4.44-9.45,8.87-9.6a9.58,9.58,0,0,1,10.11,9A6.32,6.32,0,0,1,395.51,191.9Z" transform="translate(-257.51 0)"/><path class="cls-6" d="M395.51,161.23c-.07,5.83-4,9.78-9.65,9.72a9.16,9.16,0,0,1-9.35-8.95h0a5.23,5.23,0,0,1,0-.56c0-5.62,4-9.52,9.7-9.48S395.6,155.81,395.51,161.23Z" transform="translate(-257.51 0)"/><path class="cls-5" d="M416.51,152c5.76,0,10.14,4,10.05,9.21a9.75,9.75,0,0,1-9.73,9.79h-.13c-5.1,0-9.09-4.2-9.14-9.75C407.45,155,410.41,152,416.51,152Z" transform="translate(-257.51 0)"/><path class="cls-6" d="M416.73,182.05c4.77.14,9.87,5.18,9.77,9.64-.13,5.3-5.32,10.45-10.29,10.19-5.28-.26-8.95-4.76-8.7-10.67C407.72,186,411.87,181.9,416.73,182.05Z" transform="translate(-257.51 0)"/><path class="cls-7" d="M300.51,59h-20c-4.11,0-6.92-1.48-7-5.91S276.08,47,280.25,47H320.7c4.18,0,6.78,1.79,6.7,6.15s-2.88,5.93-7,5.88C313.82,58.9,307.16,59,300.51,59Z" transform="translate(-257.51 0)"/><path class="cls-7" d="M291,18c3.65,0,7.31-.08,11,0,4.36.11,7.32,3.18,7.51,7.57s-2.5,8.13-6.82,8.29c-7.79.28-15.61.29-23.4,0-4.31-.17-7-3.88-6.77-8.33A7.55,7.55,0,0,1,280.08,18h11Z" transform="translate(-257.51 0)"/><path class="cls-8" d="M445.93,193.54V183.35c4.38,0,8.7-.44,12.84.23,1.6.25,4,3.1,3.88,4.63-.12,1.85-2.26,4.77-3.93,5.09C454.74,194.05,450.51,193.54,445.93,193.54Z" transform="translate(-257.51 0)"/><path class="cls-9" d="M446.17,202c4.25,0,8.23-.12,12.2,0,3.15.13,5.58,1.51,5.51,5.09-.07,3.41-2.55,4.48-5.44,4.58-4,.13-7.94,0-12.27,0Z" transform="translate(-257.51 0)"/></svg>